<?xml version="1.0" encoding="utf-8"?>
<!-- Generator: Adobe Illustrator 23.0.3, SVG Export Plug-In . SVG Version: 6.00 Build 0)  -->
<svg version="1.1" id="Layer_1" xmlns="http://www.w3.org/2000/svg" xmlns:xlink="http://www.w3.org/1999/xlink" x="0px" y="0px"
	 viewBox="0 0 351 365" style="enable-background:new 0 0 351 365;" xml:space="preserve">
<style type="text/css">
	.st0{fill:#FFFFFF;}
</style>
<g>
	<g id="XMLID_11_">
		<g>
			<g>
				<path class="st0" d="M82.47,96.03v172.93c0,13.66-11.07,24.73-24.71,24.73c-13.66,0-24.73-11.07-24.73-24.73V96.03
					c0-13.66,11.07-24.73,24.73-24.73c6.81,0,12.99,2.77,17.46,7.25C79.7,83.03,82.47,89.2,82.47,96.03z"/>
			</g>
		</g>
	</g>
	<path class="st0" d="M312.42,246.91l-127.05-64.4l127.05-64.4c12.18-6.17,17.05-21.05,10.87-33.23
		c-6.17-12.18-21.05-17.05-33.23-10.87L119.7,160.38l0.01,0.03c-4.61,2.29-8.55,6-11.06,10.94c-6.17,12.18-1.3,27.06,10.87,33.23
		l170.54,86.44c12.18,6.17,27.06,1.3,33.23-10.87v0C329.47,267.96,324.6,253.09,312.42,246.91z"/>
</g>
</svg>
