<svg width="64" height="64" xmlns="http://www.w3.org/2000/svg">
 <style type="text/css">.st0{fill:#52545c;}</style>

 <g>
  <title>background</title>
  <rect fill="none" id="canvas_background" height="402" width="582" y="-1" x="-1"/>
 </g>
 <g>
  <title>Layer 1</title>
  <path stroke="null" id="svg_2" d="m52.70532,26.46157c0.04553,-0.51224 0.07189,-1.02973 0.07189,-1.55248c0,-9.06794 -6.70439,-16.41791 -14.97585,-16.41791c-6.41924,0 -11.88004,4.43677 -14.0102,10.66245c-1.41132,-1.69696 -3.42408,-2.78186 -5.68363,-2.78186c-4.26033,0 -7.71316,3.78532 -7.71316,8.45589c0,0.55164 0.05511,1.09015 0.14856,1.61026c-5.68363,1.02711 -10.03262,6.39905 -10.03262,12.91893c0,7.25541 5.36495,13.13433 11.98068,13.13433l38.03864,0c6.61813,0 11.98068,-5.87892 11.98068,-13.13433c0.0024,-6.43845 -4.22918,-11.77098 -9.80499,-12.89528z" stroke-opacity="null" stroke-width="null" fill="#484a52"/>
 </g>
</svg>